<svg width="143" height="38" viewBox="0 0 143 38" fill="none" xmlns="http://www.w3.org/2000/svg">
<g clip-path="url(#clip0_3086_2520)">
<path d="M57.5116 14.1888C56.4827 12.7212 54.5695 12.0166 52.9541 12.0166C49.3088 12.0166 45.9922 15.049 45.9922 19.8444C45.9922 24.6397 49.2992 27.7053 52.9541 27.7053C54.5318 27.7053 56.4813 26.9675 57.5116 25.5007V25.9185C57.5116 29.7874 55.8962 31.2881 53.3444 31.2881C51.8222 31.2881 50.3625 30.3371 49.754 28.9596L46.4367 30.4596C47.6529 33.2384 50.3001 35.0258 53.3464 35.0258C58.3643 35.0258 61.4943 31.9927 61.4943 25.4762V12.41H57.5157L57.5116 14.1888ZM53.7189 23.8119C51.7131 23.8119 50.0428 22.0252 50.0428 19.853C50.0428 17.6477 51.7131 15.9265 53.7189 15.9265C55.571 15.9265 57.395 17.5497 57.395 19.853C57.3936 22.1232 55.6623 23.8198 53.7189 23.8119Z" fill="white"/>
<path d="M72.2636 12.0244C68.2205 12.0244 64.6309 15.1555 64.6309 19.8853C64.6309 24.5827 68.2205 27.7138 72.2636 27.7138C76.3067 27.7138 79.8943 24.5827 79.8943 19.8853C79.8943 15.1555 76.3067 12.0244 72.2636 12.0244ZM72.2636 23.8118C70.2894 23.8118 68.6733 22.1886 68.6733 19.8853C68.6733 17.5575 70.2894 15.9264 72.2636 15.9264C74.2378 15.9264 75.854 17.5575 75.854 19.8853C75.854 22.1886 74.2385 23.8197 72.2636 23.8118V23.8118Z" fill="white"/>
<path d="M91.5818 12.0325C89.9739 12.0325 88.0305 12.7047 87.0235 14.2047V4.30273H83.0449V27.3286H87.0235V25.4763C88.023 27.0087 89.9663 27.714 91.5818 27.714C95.2263 27.714 98.5436 24.6398 98.5436 19.8531C98.5436 15.0664 95.2263 12.0325 91.5818 12.0325ZM90.8087 23.812C88.8653 23.812 87.1326 22.1233 87.1326 19.8531C87.1326 17.5577 88.9511 15.9266 90.8087 15.9266C92.8227 15.9266 94.4615 17.6478 94.4615 19.8531C94.4615 22.0253 92.8227 23.8199 90.8087 23.812Z" fill="white"/>
<path d="M103.523 22.4766C102.156 22.4766 101.002 23.5666 101.002 25.0335C101.002 26.5335 102.156 27.6156 103.523 27.6271C104.92 27.6271 106.106 26.5363 106.106 25.0335C106.106 23.558 104.92 22.4766 103.523 22.4766Z" fill="white"/>
<path d="M118.126 12.0244C116.518 12.0244 114.575 12.7297 113.568 14.2297V12.4099H109.59V34.6403H113.568V25.4761C114.567 27.0085 116.511 27.7138 118.126 27.7138C121.771 27.7138 125.088 24.6727 125.088 19.8529C125.088 15.0986 121.779 12.0323 118.126 12.0244ZM117.361 23.8118C115.509 23.8118 113.685 22.1548 113.685 19.8853C113.685 17.6159 115.418 15.9264 117.361 15.9264C119.375 15.9264 121.014 17.6807 121.014 19.8853C121.014 22.0899 119.375 23.8197 117.361 23.8118V23.8118Z" fill="white"/>
<path d="M142.329 19.6231C142.329 15.0575 139.012 12.0244 134.938 12.0244C130.895 12.0244 127.398 15.0655 127.398 19.8853C127.398 24.484 130.59 27.7138 134.969 27.7138C137.466 27.7138 139.932 26.5985 141.267 24.7138L138.958 22.2542C138.485 22.803 137.908 23.2424 137.265 23.5444C136.621 23.8464 135.925 24.0045 135.22 24.0085C133.331 24.0085 131.996 22.984 131.567 21.2297H142.244C142.301 20.6963 142.329 20.1599 142.329 19.6231ZM131.566 18.5165C131.988 16.4992 133.392 15.6397 135.031 15.6397C136.826 15.6397 138.192 16.7621 138.317 18.5165H131.566Z" fill="white"/>
<path d="M12.1211 4.46994C12.3886 4.93103 12.6904 5.21921 13.0403 5.33448C13.0797 5.40447 13.1233 5.47184 13.1706 5.53621C12.971 5.54069 12.7727 5.57217 12.5807 5.62987C12.9374 5.94687 13.3078 6.16301 13.74 6.18462C13.788 6.22785 13.836 6.27108 13.8909 6.3143C13.7387 6.32879 13.5876 6.35285 13.4381 6.38635C13.8634 6.78981 14.3436 6.96992 14.7346 6.89067C14.8169 6.9339 14.8993 6.97713 14.9884 7.02035C14.9061 7.06358 14.8169 7.11401 14.7346 7.16444C15.105 7.30854 15.448 7.36617 15.7361 7.33015C16.3123 7.53908 16.8268 7.68317 16.8268 7.68317C16.8268 7.68317 17.9449 7.84888 18.1713 8.3604C18.5212 7.79845 18.9259 7.7192 19.0631 7.68317C19.6118 7.55349 20.0303 7.45263 20.4213 7.32294C20.7178 7.33048 21.0125 7.27154 21.2856 7.15004C21.2239 7.10681 21.1621 7.06358 21.1073 7.02756C21.2061 6.97791 21.3023 6.92259 21.3954 6.86185C21.8618 6.88347 22.246 6.63851 22.6644 6.33592C22.5059 6.30184 22.3455 6.27778 22.1842 6.26387C22.2185 6.22785 22.2597 6.19183 22.294 6.1558C22.7261 6.11258 23.0897 5.86042 23.4258 5.5146C23.2412 5.45792 23.0484 5.43597 22.8565 5.44976C22.8839 5.39932 22.9182 5.34889 22.9456 5.29846C23.1505 5.2371 23.3392 5.12728 23.4974 4.97741C23.6555 4.82755 23.7789 4.64163 23.858 4.43391C23.6481 4.45703 23.4396 4.49312 23.2337 4.54198C23.2541 4.46415 23.2679 4.3846 23.2749 4.30423C23.4072 4.19249 23.5154 4.05248 23.5923 3.89349C23.6691 3.73451 23.7129 3.56017 23.7208 3.38205C23.5836 3.4613 23.4327 3.52614 23.2818 3.59818C23.2662 3.47196 23.2433 3.34684 23.2132 3.22355C23.3298 2.9858 23.3366 2.69761 23.2337 2.32298C23.1318 2.39459 23.0334 2.47154 22.9388 2.55352C22.8788 2.4459 22.8124 2.34242 22.7399 2.24373C22.8153 1.98436 22.7261 1.65295 22.4723 1.21347C22.3406 1.32068 22.229 1.45259 22.1431 1.60252C22.0539 1.52327 21.9578 1.45122 21.855 1.37197C21.8207 1.04777 21.5668 0.737971 21.0661 0.406561C21.0316 0.559946 21.0154 0.717267 21.0181 0.874858C20.922 0.83163 20.8191 0.781198 20.7162 0.745176C20.5791 0.399356 20.2429 0.147197 19.7765 0.0607419C19.7863 0.194959 19.8092 0.327751 19.8451 0.456993C19.7117 0.420573 19.5766 0.391713 19.4404 0.370538C19.1934 0.0967647 18.7681 -0.0401221 18.2605 0.0103099C18.2983 0.0928067 18.3419 0.172271 18.3908 0.248061C18.2468 0.240856 18.1027 0.233651 17.9587 0.240856C17.8421 0.240856 17.7323 0.248061 17.6157 0.248061C17.66 0.169395 17.699 0.0875389 17.7323 0.00310514C17.2178 -0.011304 16.8268 0.111174 16.5799 0.370538C16.4459 0.391712 16.313 0.420573 16.182 0.456993C16.2153 0.32552 16.2246 0.188638 16.2095 0.0535372C15.7087 0.24806 15.4206 0.456993 15.2971 0.745176C15.1942 0.788403 15.0913 0.83163 14.9953 0.874858C14.9884 0.75238 14.9747 0.615493 14.9541 0.456993C14.4945 0.730767 14.227 1.04056 14.1653 1.35036C14.0516 1.42858 13.9417 1.51274 13.836 1.60252C13.7581 1.47827 13.6634 1.36662 13.5548 1.27111C13.3147 1.63134 13.2186 1.95554 13.2598 2.2077C13.1981 2.29416 13.1363 2.38061 13.0814 2.46707C12.9746 2.38853 12.8623 2.31868 12.7453 2.25813C12.6561 2.60395 12.663 2.88493 12.7865 3.11548C12.744 3.24453 12.7119 3.37707 12.6904 3.51173C12.5646 3.46361 12.4364 3.42273 12.3063 3.38925C12.354 3.67201 12.4778 3.93452 12.663 4.14573C12.6723 4.26192 12.6883 4.37741 12.711 4.49155C12.5159 4.45954 12.3179 4.45229 12.1211 4.46994V4.46994ZM18.0067 2.28695C19.6256 2.27975 20.7163 3.25957 20.7231 3.95841C20.73 4.53478 20.1057 4.91662 18.9739 5.23362C18.4388 5.38492 18.2811 5.62987 18.089 5.8388C18.0135 5.70912 17.7666 5.46417 17.2521 5.34169C16.0311 5.06071 15.2285 4.5708 15.2285 3.98723C15.2285 3.28839 16.3878 2.29416 18.0067 2.28695Z" fill="white"/>
<path d="M33.2831 4.02344L25.1132 9.03782L25.1064 9.03061L24.7428 9.24675C23.9501 9.68054 23.0987 9.98425 22.2185 10.1473C20.1331 10.5003 18.5554 9.11707 18.5417 9.10266L18.1644 8.74963L17.8008 9.11707C17.7528 9.1675 16.5867 10.2914 14.2955 10.1978C13.3969 10.1617 12.4709 9.74386 11.9564 9.47009L3.03197 4.05226L3.01825 11.3793L0 9.58536L0.0480174 26.5449V26.5737C0.130333 28.1876 0.226369 29.5348 0.61737 30.9253C1.06325 32.5247 1.86583 33.944 3.07313 35.2624C3.86845 36.1226 4.82019 36.8061 5.87187 37.2725C6.80946 37.6741 7.80378 37.9102 8.81467 37.9714C9.08219 37.993 9.34286 38.0002 9.60353 38.0002C11.2224 38.0002 12.7453 37.6688 14.0006 37.4022C14.5836 37.2797 15.1187 37.1644 15.5371 37.114C16.9777 37.0852 17.499 37.7624 17.8557 37.9065C17.9407 37.9596 18.038 37.987 18.137 37.9858C18.1597 37.9821 18.1828 37.9821 18.2055 37.9858C18.2967 37.9744 18.3839 37.9398 18.4594 37.8849L18.4662 37.8921C18.8366 37.6255 19.1247 37.4382 19.4128 37.3157C20.627 36.8114 21.6971 37.0924 23.0553 37.4526C23.2886 37.5175 23.5286 37.5751 23.7756 37.64L23.803 37.6472C24.7428 37.8129 25.7923 37.9714 26.8693 37.9714C27.4852 37.9717 28.1001 37.9187 28.7077 37.8129C30.4569 37.4598 31.9935 36.5449 33.4066 35.0103C34.6001 33.7135 35.341 32.4743 35.7457 31.127C36.1093 29.895 36.171 28.6703 36.2465 27.251L36.2602 26.9844L36.2945 9.61418L33.2557 11.4297L33.2831 4.02344ZM32.2061 9.30439L32.1993 12.0781L29.62 13.7064L28.6528 12.7049L28.1246 12.1214L32.2061 9.30439ZM21.5325 11.3721C21.8219 11.3721 22.111 11.348 22.3968 11.3001C23.2685 11.1442 24.1156 10.863 24.9143 10.4643L28.8586 14.5493C28.3236 15.1689 27.4112 16.4297 27.0202 18.1228C26.7793 18.1867 26.55 18.2913 26.3411 18.4326L26.053 18.6343L26.2794 18.9081C26.4357 19.0905 26.6275 19.2354 26.8419 19.3331C26.8258 19.5609 26.8235 19.7895 26.835 20.0176C26.8624 20.9398 27.0202 21.898 27.226 22.7913C25.9842 22.5464 24.7236 22.421 23.4601 22.4167H23.3915V20.2049H23.3983C23.3993 20.1947 23.3969 20.1845 23.3915 20.1761C23.4601 19.8014 23.8236 19.751 23.9059 19.7366L23.8785 19.4196L23.8991 19.7366L23.8511 19.1026C23.6899 19.116 23.5332 19.1651 23.3915 19.2467V18.7784C23.4875 18.3605 24.3038 18.2957 24.3106 18.2957L24.2832 17.6545C23.975 17.683 23.6735 17.7659 23.3915 17.8994V17.1574V17.1285C23.412 17.0925 23.4326 17.0565 23.4601 17.0061C23.6986 17.0519 23.944 17.0393 24.1772 16.9693C24.4104 16.8993 24.625 16.7739 24.8045 16.6026C25.0847 16.3284 25.2684 15.9628 25.3259 15.5652L25.367 15.2482L25.0652 15.2049C24.8225 15.1824 24.578 15.2123 24.3468 15.2929C24.1156 15.3734 23.9025 15.5029 23.7207 15.6732C23.4938 15.8855 23.2912 16.1249 23.1171 16.3865C22.8921 16.0248 22.5828 15.7297 22.2185 15.5291C21.9149 15.3567 21.5757 15.2652 21.2307 15.2626L20.8877 15.277L20.9426 15.63C20.9494 15.6732 21.1072 16.6963 21.896 16.9773C22.1674 17.0798 22.4626 17.0898 22.7398 17.0061C22.7604 17.0709 22.7741 17.1213 22.7809 17.1502V17.8994C22.5014 17.7583 22.1987 17.6752 21.8892 17.6545L21.8617 18.2957C22.0273 18.3092 22.1908 18.343 22.3488 18.3965C22.6026 18.4902 22.7466 18.6199 22.7809 18.7784V19.2467C22.6376 19.1702 22.4815 19.1237 22.3213 19.1098L22.2733 19.7438C22.2939 19.7438 22.7192 19.787 22.7809 20.1977V22.4239C20.8671 22.4671 19.4883 22.7337 18.7269 22.921V19.47C18.8438 19.4998 18.9633 19.5167 19.0836 19.5205H19.1042C19.5638 19.5205 20.0508 19.1386 20.0988 19.0954L20.3732 18.8721L20.1263 18.6127C20.1057 18.5983 19.6667 18.1372 19.0218 18.1372C18.922 18.1364 18.8227 18.151 18.7269 18.1804V10.6156C19.3854 10.9758 20.3595 11.3721 21.5325 11.3721ZM14.2612 11.3649C14.3641 11.3721 14.4739 11.3721 14.5768 11.3721C15.935 11.3721 16.9502 11.0047 17.6225 10.6372V22.9282H17.6088C16.7936 22.7301 15.9661 22.5929 15.1324 22.5176C15.1118 22.1573 15.0364 21.2207 15.0364 21.2207C15.0364 21.2207 15.1118 20.4571 15.1324 20.3418C15.3039 19.8014 15.3999 19.398 15.4411 19.3187C15.6599 19.1934 15.857 19.0302 16.0242 18.836C16.1888 18.6199 16.2574 18.5551 16.3123 18.202L16.4426 17.0205L16.2917 14.0018L17.1835 13.8793L17.3549 13.6199L17.3687 13.3317L16.1819 12.4456C16.1819 12.4456 15.6743 12.6257 15.5577 12.6617C15.3176 12.532 14.8855 12.46 14.4396 12.8202C14.4876 12.9931 14.6385 13.1588 14.8237 13.2669C15.057 13.411 15.4823 13.4038 15.4823 13.4038C15.4823 13.4038 15.4891 13.5191 15.4891 13.6271C15.5303 14.9239 15.5097 16.3577 15.5097 16.3577L14.2887 16.4441L11.1607 16.3L10.0563 17.3951L9.91907 17.7914C9.79518 18.1553 9.80993 18.5553 9.96023 18.9081L10.5021 18.2885L10.7217 19.3836L10.4267 20.8821L10.6325 21.4801C10.6325 21.4801 10.8383 22.0204 11.0303 22.5536C10.3514 22.6245 9.67771 22.7424 9.0136 22.9066C9.28112 21.8259 9.34972 21.2351 9.36344 21.0911C9.41146 20.8029 9.76816 18.4542 9.05476 16.7467C8.78098 16.0889 8.42328 15.4733 7.99151 14.9167C7.89748 14.7412 7.79205 14.5727 7.67596 14.4124L7.91605 14.1387L11.3665 10.4643C11.9427 10.7813 13.0951 11.3145 14.2612 11.3649ZM14.5836 22.4743C14.529 22.4683 14.474 22.4659 14.419 22.4671C14.3847 21.9196 14.3093 20.6732 14.3093 20.6732L14.3641 20.5219L14.4808 19.8303L14.4602 20.5867V20.8389L14.5836 22.4743ZM13.9251 22.4383C13.7536 22.4311 13.5821 22.4311 13.4106 22.4311C13.102 22.4311 12.807 22.4383 12.5189 22.4455C12.3817 21.9772 12.2857 21.5449 12.1553 21.0983C12.1142 20.9686 12.2033 20.3634 12.2033 20.3634L12.7796 19.362L13.246 19.5421L13.6782 19.4556L13.637 20.7813L13.9251 22.4383ZM11.977 22.4599V22.4671C11.8192 22.4743 11.6683 22.4887 11.5242 22.5032C11.3322 21.9196 11.0715 20.8821 11.0715 20.8821L11.5928 19.4268L11.5311 21.0478C11.5311 21.0478 11.8741 21.9772 11.977 22.4599V22.4599ZM4.09522 9.39804L8.27961 12.0926L6.83223 13.6415L4.08836 12.0349L4.09522 9.39804ZM6.34519 28.3533L2.11278 25.738C1.6669 25.3778 1.1387 24.751 1.11812 23.8144C1.11951 23.6941 1.11493 23.5739 1.10441 23.4542L1.09069 18.0507C1.81095 18.4686 6.82537 21.4081 8.01209 22.3302C7.8063 23.2236 7.43588 24.5565 6.77735 26.3504C6.54837 26.9946 6.40301 27.6683 6.34519 28.3533V28.3533ZM27.6239 32.9498C26.1559 34.2754 24.7154 35.0679 21.7108 35.1976C19.7627 35.2769 18.7543 35.9613 18.1575 36.5809C17.6705 36.0621 16.6553 35.2624 14.5288 35.1976C12.4434 35.1328 11.0715 34.5492 10.2826 34.0737C9.45262 33.5694 9.0822 33.0723 9.06162 33.0434L9.04104 33.0002L9.00674 32.9642C8.54419 32.4446 8.17056 31.845 7.90233 31.1919C7.29868 29.7509 7.27124 28.2596 7.81316 26.7683C8.19044 25.7236 8.47854 24.8374 8.69805 24.0882H27.5758C27.8513 25.0084 28.1788 25.9106 28.5568 26.7899C28.8038 27.5284 28.9516 28.2995 28.9958 29.0809C29.0781 30.7524 28.6185 32.0492 27.6239 32.9498V32.9498ZM35.2244 18.0435L35.2107 23.8576C35.1832 24.9167 34.5727 25.5003 34.1748 25.774L33.9622 25.9037C33.8799 25.9469 33.825 25.9686 33.825 25.9686L33.8593 25.9613L30.0247 28.2884C29.9404 27.6249 29.7887 26.9728 29.572 26.3432L29.5583 26.3072C29.5514 26.2783 28.7214 24.4268 28.2481 22.2942L35.2244 18.0435Z" fill="white"/>
<path d="M19.5911 31.5664C19.2756 31.6024 19.0424 31.7249 18.912 31.9122C18.8082 32.0721 18.7488 32.2592 18.7405 32.4525C18.7423 32.6849 18.7866 32.9149 18.8709 33.1298C18.7586 32.976 18.6727 32.8029 18.6171 32.6182C18.5828 32.4525 18.4662 32.1355 18.768 31.7105C18.8398 31.6031 18.9315 31.5121 19.0376 31.4428C19.1437 31.3735 19.2619 31.3273 19.3854 31.307C19.332 31.1098 19.2214 30.9351 19.0689 30.8072C18.9164 30.6794 18.7296 30.6047 18.5348 30.5938C18.58 30.8245 18.5621 31.064 18.4832 31.2846C18.4043 31.5051 18.2676 31.6977 18.0889 31.8401C17.9154 31.9677 17.7106 32.0402 17.4989 32.0491C17.2449 32.0619 16.9948 31.9803 16.7924 31.8185C16.6967 31.7392 16.6174 31.6401 16.5596 31.5273C16.5018 31.4145 16.4666 31.2905 16.4563 31.1629C16.3308 31.2816 16.1765 31.3615 16.0104 31.3935C15.8804 31.4079 15.7494 31.4079 15.6194 31.3935C15.4567 31.3563 15.3027 31.2853 15.1667 31.1845C15.0076 31.3811 14.7901 31.5156 14.5493 31.5664C14.4931 31.5806 14.4356 31.5879 14.3778 31.588C14.1675 31.6023 13.9578 31.5523 13.7741 31.4439C13.7462 31.5263 13.7069 31.604 13.6575 31.6744C13.4792 31.9266 13.1979 32.0851 12.8138 32.1355C12.8069 32.229 12.8069 32.323 12.8138 32.4165C12.8287 32.5356 12.8669 32.6502 12.9259 32.7531C12.9849 32.856 13.0635 32.9449 13.1568 33.0145C13.2931 33.1172 13.4555 33.1749 13.6232 33.1802H13.6644L13.685 33.1586H13.6987C13.7263 33.1598 13.754 33.1573 13.781 33.1514C13.8084 33.1442 13.8359 33.1442 13.8633 33.137C13.9521 33.1129 14.0374 33.0765 14.1171 33.0289V33.0361C14.0397 33.0885 13.9536 33.1252 13.8633 33.1442C13.9556 33.1246 14.0439 33.088 14.124 33.0361V33.0289C14.1526 33.009 14.1801 32.9874 14.2063 32.9641V32.9641C14.2718 32.9101 14.3276 32.8442 14.3709 32.7695C14.4812 32.5852 14.5228 32.3645 14.4875 32.1499L14.4944 32.1427C14.4876 32.1085 14.4784 32.0747 14.467 32.0419C14.4407 31.9578 14.4038 31.8778 14.3572 31.8041C14.4363 31.8788 14.5035 31.9664 14.5561 32.0635V32.0635C14.5713 32.089 14.585 32.1155 14.5973 32.1427C14.6009 32.0996 14.6009 32.0562 14.5973 32.013L14.6042 32.0058C14.6085 32.0562 14.6085 32.1068 14.6042 32.1571C14.662 32.2776 14.6899 32.4115 14.6851 32.5463C14.6803 32.6811 14.643 32.8125 14.5767 32.928C14.4901 33.0709 14.3695 33.1876 14.2269 33.2666C14.2433 33.4138 14.2955 33.554 14.3784 33.6738C14.4613 33.7937 14.5721 33.8891 14.7002 33.9511C14.9197 34.0591 15.249 34.0375 15.5028 33.8934L15.5371 33.8718C15.9075 33.6197 15.9624 33.2738 15.9487 33.0865C15.9403 32.8963 15.8811 32.7123 15.7781 32.5557C15.675 32.399 15.5321 32.2759 15.3656 32.2004V32.1932C15.4886 32.2065 15.6074 32.2475 15.7139 32.3134C15.8204 32.3793 15.9122 32.4685 15.983 32.575C16.1585 32.4844 16.3536 32.444 16.5487 32.458C16.7438 32.4719 16.932 32.5396 17.0942 32.6543C17.2451 32.4669 17.4852 32.3228 17.8488 32.3012C17.9654 32.3012 18.2055 32.3156 18.3838 32.4381C18.2874 32.413 18.1883 32.4009 18.0889 32.4021C17.3549 32.4309 17.2108 32.9713 17.1834 33.0793C17.1079 33.5332 17.2794 33.8142 17.3823 33.9367L17.4166 33.9655C17.5389 34.0771 17.6869 34.1533 17.8458 34.1866C18.0047 34.2199 18.1692 34.2091 18.3229 34.1553C18.4766 34.1015 18.6144 34.0065 18.7225 33.8797C18.8306 33.7529 18.9054 33.5987 18.9395 33.4323L18.9669 33.3027L19.0698 33.3747C19.1745 33.4452 19.2915 33.493 19.414 33.5153C19.5366 33.5375 19.6621 33.5338 19.7832 33.5044C20.006 33.4512 20.2026 33.3142 20.3357 33.1191C20.4688 32.9241 20.5292 32.6846 20.5055 32.4459C20.4819 32.2072 20.3758 31.9859 20.2073 31.8239C20.0388 31.6618 19.8196 31.5702 19.5911 31.5664V31.5664Z" fill="white"/>
<path d="M25.1976 26.2923C25.0741 25.9249 24.7312 25.3917 24.203 25.2476C24.052 25.1283 23.8753 25.05 23.6886 25.0198C23.5019 24.9897 23.3109 25.0085 23.1329 25.0747C22.9595 25.0712 22.7885 25.1177 22.6385 25.2092C22.4885 25.3006 22.3653 25.4335 22.2823 25.5935C22.223 25.6412 22.1699 25.6969 22.1245 25.7592C22.0422 25.8888 21.9598 26.1194 22.0559 26.4652C22.0627 26.9119 22.296 27.1641 22.5292 27.2577C22.7967 27.3874 23.0848 27.2505 23.1397 27.2217L23.4072 27.0776L23.2563 26.8038C23.2051 26.7051 23.1703 26.5979 23.1534 26.4868C23.1528 26.4459 23.1551 26.4049 23.1603 26.3643C23.1927 26.327 23.2325 26.2974 23.2769 26.2779L23.2838 26.2707C23.3729 26.2347 23.5239 26.2707 23.6267 26.3067C23.6674 26.4601 23.7427 26.601 23.8463 26.7174C23.7685 26.8995 23.7221 27.0946 23.7091 27.2937C23.5033 27.3658 23.3935 27.5531 23.3318 27.69C23.279 27.7046 23.2283 27.7264 23.1809 27.7548C23.0917 27.7764 23.0231 27.7836 22.7007 27.7476H22.6801L22.639 27.7404C22.4194 27.7188 22.1313 27.5747 22.0353 27.5171L22.0216 27.5099C22.001 27.4955 20.1215 26.3643 18.9896 25.6871L18.969 25.6727C18.578 25.4566 17.6588 24.9595 16.4653 25.0099C15.5872 25.0315 14.6063 25.435 13.9683 26.0329L13.7557 26.2347C13.3647 26.3139 13.0697 26.3932 13.0491 26.3932L12.8502 26.4436L12.7885 27.2361C12.5685 27.3274 12.3533 27.4308 12.1437 27.5459L12.0202 27.6179C12.0133 27.6179 12.0133 27.6251 12.0065 27.6251V27.6179C12.0047 27.6179 12.0029 27.6187 12.0016 27.6201C12.0003 27.6214 11.9996 27.6232 11.9996 27.6251L11.9104 27.6756L11.9036 27.8485C11.9036 27.9061 11.8967 28.0862 11.9104 28.288L12.2191 28.1583L12.2946 28.1223L12.4661 28.0574L12.6513 27.9998C13.6185 27.6828 14.9767 27.5531 16.0948 27.9494C17.014 28.2736 17.4668 28.6914 17.8715 29.0517C17.9469 29.1237 18.0224 29.1885 18.0979 29.2534C17.6451 28.9436 16.8357 28.4393 15.9988 28.1871C15.1619 27.9349 13.9889 27.9205 12.8777 28.2808C12.8777 28.2808 12.713 28.3384 12.4798 28.4321V28.4249C12.4661 28.4321 12.4592 28.4321 12.4524 28.4393L12.3495 28.4825C12.0737 28.5898 11.8055 28.7174 11.5469 28.8643L11.5537 29.0084C11.58 29.4128 11.6327 29.8148 11.7115 30.2116L11.7321 30.298C11.7321 30.2961 11.7328 30.2943 11.7341 30.293C11.7354 30.2916 11.7371 30.2908 11.7389 30.2908C11.7458 30.3413 11.7527 30.3701 11.7527 30.3701C11.7744 30.3635 11.7952 30.3538 11.8144 30.3413V30.3413C12.0614 30.2188 13.0148 29.7649 13.694 29.6064C14.0712 29.52 14.3731 29.4551 14.6749 29.4119H14.6886C14.7272 29.4061 14.7662 29.4037 14.8052 29.4047C14.8034 29.4047 14.8017 29.4039 14.8004 29.4026C14.7991 29.4012 14.7984 29.3994 14.7984 29.3975H14.8052C14.8061 29.3975 14.807 29.3977 14.8078 29.398C14.8087 29.3984 14.8094 29.3989 14.8101 29.3996C14.8107 29.4003 14.8112 29.401 14.8116 29.4019C14.8119 29.4028 14.8121 29.4037 14.8121 29.4047C14.8532 29.4047 14.9013 29.3975 14.9424 29.3975H15.0659L15.0522 29.3831L15.059 29.3903H15.2991C15.3009 29.3903 15.3027 29.3895 15.304 29.3882C15.3052 29.3868 15.306 29.385 15.306 29.3831H15.3334C15.3608 29.3903 15.402 29.3903 15.4363 29.3975C15.5186 29.3975 15.6009 29.4047 15.6764 29.4119C15.7038 29.4119 15.7244 29.4191 15.7519 29.4191C16.4961 29.5026 17.227 29.6866 17.9264 29.9666C17.9675 29.981 18.0087 30.0027 18.0498 30.0171C18.1184 30.0459 18.2076 30.0819 18.2213 30.0891L18.3517 30.1468L18.5232 29.8225C19.2023 30.1107 21.0269 30.8384 22.0079 30.8168C22.1963 30.8464 22.3868 30.8585 22.5772 30.8528C22.9377 30.8492 23.295 30.781 23.6336 30.6511C24.6145 30.4421 25.177 29.4479 25.3074 29.0156C25.6298 28.605 25.6915 27.8485 25.5543 27.3442C25.5337 27.0272 25.472 26.5877 25.1976 26.2923ZM22.9819 29.4911C22.8996 30.0819 22.6801 30.3125 22.6801 30.3125C22.6801 30.3125 22.7899 29.837 22.6252 28.9868C22.5709 28.7417 22.4879 28.5045 22.3783 28.2808L22.9133 28.3744C22.9202 28.3744 23.0917 28.7058 22.9819 29.4911ZM24.6008 27.5891C24.4894 27.535 24.3718 27.4962 24.251 27.4739C24.252 27.3696 24.2635 27.2658 24.2853 27.1641C24.4831 27.1922 24.6665 27.2885 24.8066 27.4378C24.9361 27.5903 25.0384 27.766 25.1084 27.9566C24.9581 27.8075 24.7869 27.6836 24.6008 27.5891V27.5891Z" fill="white"/>
<path d="M12.8275 31.8254C13.1018 31.775 13.2939 31.6597 13.4174 31.4868C13.5538 31.2993 13.6219 31.0668 13.6095 30.8312C13.5979 30.6561 13.5487 30.4862 13.4654 30.334C13.5667 30.4439 13.6502 30.5704 13.7124 30.7087C13.7654 30.8363 13.7957 30.973 13.8015 31.1121C13.829 31.1338 13.8564 31.1482 13.8838 31.1698H13.8907C14.0732 31.2729 14.2842 31.306 14.4875 31.2634C14.6756 31.2227 14.8449 31.116 14.9677 30.9608C14.9677 30.9599 14.9675 30.959 14.9671 30.9581C14.9668 30.9572 14.9663 30.9564 14.9657 30.9558C14.965 30.9551 14.9643 30.9546 14.9634 30.9542C14.9626 30.9538 14.9617 30.9536 14.9608 30.9536H14.954C14.8432 30.7834 14.7813 30.5834 14.7756 30.3773V30.3629C14.7579 30.1621 14.7935 29.9601 14.8785 29.7793C14.8236 29.7793 14.7687 29.7865 14.7207 29.7865C14.2468 29.8337 13.7796 29.9376 13.3282 30.0963L13.3214 30.1107L13.3076 30.1035C12.7782 30.2802 12.266 30.5093 11.7779 30.7879C11.7711 30.8869 11.778 30.9864 11.7985 31.0833C11.8425 31.2889 11.9482 31.4741 12.1002 31.6117C12.2521 31.7492 12.4422 31.8317 12.6422 31.847L12.6971 31.8542C12.7383 31.847 12.7794 31.847 12.8137 31.8398L12.8275 31.8254Z" fill="white"/>
<path d="M16.71 31.5373C16.7971 31.614 16.8972 31.6727 17.005 31.7103C17.005 31.7103 17.4852 31.9408 17.9311 31.6166C18.1712 31.4437 18.3632 31.0114 18.2398 30.5359L18.1849 30.5071C17.3062 30.0504 16.3452 29.7951 15.3656 29.7578H15.1941C15.0841 29.9267 15.0332 30.1304 15.05 30.3342V30.3558C15.0556 30.5506 15.1236 30.7378 15.2432 30.8868C15.3627 31.0359 15.5267 31.1382 15.7085 31.1771C15.8933 31.2261 16.0884 31.2096 16.2633 31.1301C16.4382 31.0506 16.5832 30.9126 16.6757 30.7376L16.6963 30.7088C16.6572 30.8491 16.5945 30.9808 16.5111 31.0979L16.5043 31.1051C16.4905 31.1195 16.4837 31.1339 16.47 31.1483C16.475 31.1807 16.4842 31.2122 16.4974 31.242C16.5454 31.386 16.6277 31.4509 16.71 31.5373Z" fill="white"/>
<path d="M19.1533 16.6527L18.8789 16.768L18.9749 17.0634C19.0695 17.2996 19.2136 17.5105 19.3965 17.6801C19.5794 17.8498 19.7964 17.9739 20.0313 18.0432C20.1674 18.0836 20.3084 18.103 20.4498 18.1008C20.7974 18.0908 21.1398 18.0101 21.4581 17.8631L21.7737 17.7046L21.561 17.366C21.417 17.1282 21.1769 16.732 20.5115 16.5158C19.9627 16.3357 19.2356 16.6167 19.1533 16.6527Z" fill="white"/>
<path d="M25.6839 16.6461C25.1557 16.7901 24.7167 17.4025 24.6687 17.4746L24.4629 17.77L24.7647 17.9429C25.0451 18.0935 25.3553 18.1725 25.6702 18.1734C25.8352 18.1773 25.9997 18.153 26.1572 18.1014C26.7883 17.9068 27.0901 17.2368 27.1039 17.208L27.2342 16.9198L26.9255 16.7685C26.6991 16.6533 26.315 16.4659 25.6839 16.6461Z" fill="white"/>
<path d="M25.7326 16.2129C25.8401 16.2423 25.9508 16.2568 26.0619 16.2561C26.3023 16.2584 26.5389 16.1938 26.7478 16.0688C27.1663 15.8095 27.2623 15.3051 27.276 15.2475L27.3309 14.9305L27.0085 14.8657C26.7026 14.7875 26.3797 14.8393 26.1099 15.0098C26.0482 15.0458 25.7395 15.2475 25.5268 15.7806L25.3965 16.1193L25.7326 16.2129Z" fill="white"/>
<path d="M19.5556 16.069C19.689 16.133 19.8343 16.165 19.9809 16.1627C20.1591 16.1567 20.3352 16.1202 20.5022 16.0546L20.7766 15.9177L20.6394 15.6079C20.5181 15.3024 20.2897 15.0574 20.0015 14.9235C19.9397 14.8947 19.6036 14.7434 19.0685 14.8731L18.7324 14.9523L18.8559 15.2909C18.989 15.6326 19.2384 15.91 19.5556 16.069V16.069Z" fill="white"/>
<path d="M24.4622 14.9668C24.7084 14.9639 24.945 14.8665 25.1276 14.6931C25.3951 14.4481 25.3951 14.0663 25.3951 14.0231L25.3883 13.7061L25.0659 13.7133C24.8406 13.7131 24.6231 13.8003 24.4554 13.9582C24.2358 14.1527 24.1673 14.513 24.1535 14.585L24.0918 14.9452L24.4348 14.9668H24.4622Z" fill="white"/>
<path d="M21.703 14.8658L22.0049 14.9091L22.0529 14.5776C22.0864 14.3622 22.0423 14.1413 21.9294 13.9581C21.7922 13.7275 21.4972 13.605 21.4355 13.5834L21.1062 13.4609L21.0308 13.814C20.9859 14.0549 21.0301 14.3048 21.1543 14.5128C21.3395 14.8082 21.6687 14.8586 21.703 14.8658Z" fill="white"/>
<path d="M20.6127 19.0451C20.1393 19.3261 20.0227 19.9025 20.009 19.9673L19.9473 20.2843L20.2491 20.3419C20.3573 20.3663 20.4677 20.3784 20.5784 20.378C20.8264 20.3786 21.071 20.3168 21.2918 20.1978C21.7651 19.9385 21.9503 19.3549 21.9709 19.2901L22.0669 18.9731L21.7651 18.8866C21.7445 18.8794 21.1546 18.7137 20.6127 19.0451Z" fill="white"/>
<path d="M24.3641 18.9656L24.1309 19.1457L24.2886 19.3979C24.3229 19.4555 24.6385 19.931 25.1049 20.0679C25.2126 20.0964 25.3232 20.111 25.4342 20.1111C25.6951 20.1075 25.9531 20.0538 26.1956 19.9526L26.5043 19.8301L26.3603 19.5204C26.3465 19.4915 26.079 18.9152 25.4959 18.7567C25.3039 18.7059 25.1038 18.6982 24.9088 18.7342C24.7137 18.7702 24.5281 18.8491 24.3641 18.9656V18.9656Z" fill="white"/>
<path d="M23.0753 15.9543L23.2948 15.7526C23.3154 15.7382 23.7955 15.3059 23.8298 14.4486C23.8573 13.7281 23.3359 13.2526 23.3154 13.231L23.089 13.0293L22.8901 13.2598C22.8832 13.2743 22.8695 13.2815 22.8626 13.2959C22.7129 13.4484 22.5939 13.6309 22.5125 13.8326C22.4312 14.0343 22.3893 14.2512 22.3893 14.4702C22.3687 15.1546 22.8558 15.7094 22.8763 15.731L23.0753 15.9543Z" fill="white"/>
</g>
<defs>
<clipPath id="clip0_3086_2520">
<rect width="143" height="38" fill="white"/>
</clipPath>
</defs>
</svg>
